<svg width="20" height="20" viewBox="0 0 20 20" fill="none" xmlns="http://www.w3.org/2000/svg">
<path d="M14.166 2.4987H17.4993C17.9596 2.4987 18.3327 2.8718 18.3327 3.33203V16.6654C18.3327 17.1256 17.9596 17.4987 17.4993 17.4987H2.49935C2.03912 17.4987 1.66602 17.1256 1.66602 16.6654V3.33203C1.66602 2.8718 2.03912 2.4987 2.49935 2.4987H5.83268V0.832031H7.49935V2.4987H12.4993V0.832031H14.166V2.4987ZM3.33268 7.4987V15.832H16.666V7.4987H3.33268ZM4.99935 9.16536H6.66602V10.832H4.99935V9.16536ZM9.16602 9.16536H10.8327V10.832H9.16602V9.16536ZM13.3327 9.16536H14.9993V10.832H13.3327V9.16536Z" fill="#E6CCCC"/>
</svg>
